# xmcd CD database file
#
# Track frame offsets:
#	150
#	62380
#	98159
#	121929
#	151115
#	175487
#	200849
#	225270
#	257163
#
# Disc length: 3743 seconds
#
# Revision: 0
# Processed by: cddbd v1.5.1PL2 Copyright (c) Steve Scherf et al.
# Submitted via: CDex 1.51
#
DISCID=6d0e9d09
DTITLE=Barth, Bruce - In Focus
DYEAR=1993
DGENRE=Jazz
TTITLE0=I Hear Music
TTITLE1=Escapade By Night
TTITLE2=Nefer Bond
TTITLE3=I Got It Bad
TTITLE4=In Search Of Pinocchio
TTITLE5=Louise
TTITLE6=Persistence
TTITLE7=Wildflower
TTITLE8=Secret Name
EXTD=YEAR: 1993
EXTT0=
EXTT1=
EXTT2=
EXTT3=
EXTT4=
EXTT5=
EXTT6=
EXTT7=
EXTT8=
PLAYORDER=
